<?xml version="1.0" encoding="UTF-8"?>
<!DOCTYPE svg PUBLIC "-//W3C//DTD SVG 1.1//EN" "http://www.w3.org/Graphics/SVG/1.1/DTD/svg11.dtd">
<!-- Creator: CorelDRAW 2018 (64 Bit) -->
<svg xmlns="http://www.w3.org/2000/svg" xml:space="preserve" width="210mm" height="297mm" version="1.1" style="shape-rendering:geometricPrecision; text-rendering:geometricPrecision; image-rendering:optimizeQuality; fill-rule:evenodd; clip-rule:evenodd"
viewBox="0 0 21000 29700"
 xmlns:xlink="http://www.w3.org/1999/xlink">
 <defs>
  <style type="text/css">
   <![CDATA[
    .fil8 {fill:none;fill-rule:nonzero}
    .fil7 {fill:#FEFEFE;fill-rule:nonzero}
    .fil9 {fill:#CA6453;fill-rule:nonzero}
    .fil1 {fill:#C7DEEE;fill-rule:nonzero}
    .fil10 {fill:#A04842;fill-rule:nonzero}
    .fil6 {fill:#752F30;fill-rule:nonzero}
    .fil11 {fill:#5F5A52;fill-rule:nonzero}
    .fil12 {fill:#838AC3;fill-rule:nonzero}
    .fil4 {fill:#6AC6DD;fill-rule:nonzero}
    .fil5 {fill:#232322;fill-rule:nonzero}
    .fil0 {fill:#5757A1;fill-rule:nonzero}
    .fil2 {fill:#00ABA6;fill-rule:nonzero}
    .fil14 {fill:#2A54A0;fill-rule:nonzero}
    .fil3 {fill:#007087;fill-rule:nonzero}
    .fil13 {fill:#303D6E;fill-rule:nonzero}
   ]]>
  </style>
 </defs>
 <g id="Capa_x0020_1">
  <metadata id="CorelCorpID_0Corel-Layer"/>
  <path class="fil0" d="M9181.38 16845.33c-196.57,141.09 -414.12,236.1 -654.64,225.32 -861.25,-38.68 -1590.18,-363.08 -2073.22,-1096.21 -329.11,-499.54 -421.02,-1068.87 -324.32,-1669.04 61.81,-383.21 185.28,-733.5 407.1,-1052.75 63.81,-91.85 112.13,-201.43 140.47,-309.91 137.53,-525.57 430.16,-911.13 955.17,-1096.06 220.69,-77.73 444.45,-147.25 662.85,-230.68 286.28,-109.27 576.68,-212.19 850.62,-347.58 350.85,-173.65 623.71,-456.51 907.2,-720.51 205.27,-191.21 434.03,-348.08 702.38,-426.44 143.18,-41.84 305.33,-61.66 451.85,-41.05 497.76,70.02 912.58,305.05 1237.54,691.39 81.44,96.79 157.51,198.35 233.68,299.41 306.67,407.04 291.76,859.74 206.18,1331.8 -92.78,512.11 -411.17,886.88 -737.71,1252.74 -239.29,268.21 -510.3,508.81 -774.18,754.34 -518.73,482.82 -972.93,1021.91 -1407.89,1579.39 -165.01,211.54 -343.15,413.11 -521.87,613.44 -78.64,88.23 -173.57,162.02 -261.21,242.4z"/>
  <path class="fil1" d="M18718.43 30627.35c-1890.43,-1149.39 -4047.1,-2372.86 -5919.83,-4009.79 -480.99,-420.31 -986.59,-588.74 -1567.42,-474.61 -681.38,133.81 -1384.91,267.36 -2010.41,551.55 -1943.97,883.31 -3634,465.71 -5219.68,-827.92 -840.99,-686.09 -1695.45,-1354.64 -2105.79,-2404.96 -183.84,-470.63 -359.21,-956.17 -446.2,-1451.15 -293.42,-1670.75 -635.52,-3340.66 -785.96,-5026.33 -127.26,-1427.16 271.71,-2776.38 1345.16,-3829.92 1295.69,-1271.49 3445.94,-1466.14 5120.61,-467.99 1157.24,689.67 2267.08,1474.41 3472.84,2063.53 2082.72,1017.55 4310.26,1576.18 6624.59,1810.93 1688.38,171.3 3378.97,375.34 4991.93,955.17 3272.84,1176.59 5539.99,3294.13 6271.06,6803.51 277.21,1331.1 239.17,2717.14 -285.69,3940.83 -655.99,1529.22 -1821.29,2667.91 -3531.1,3083.94 -1976.58,480.98 -3874.87,225.25 -5954.11,-716.79z"/>
  <path class="fil0" d="M25164.65 31300.23c255.16,-215.18 503.41,-439.14 767.04,-643.26 340.8,-264.02 697.61,-507.18 1040.61,-768.41 470.79,-358.43 935.92,-724.42 1401.2,-1090.14 54.81,-43.03 96.34,-103.49 142.03,-157.58 40.18,-47.69 81,-99.93 151.17,-65.17 69.94,34.7 59.44,101.06 38.54,159.44 -197.64,551.58 -421.04,1087.71 -793.16,1552.86 -473.5,591.89 -998.79,1125.82 -1638.57,1537.5 -160.66,103.36 -336.6,183.21 -506.89,271.28 -196.2,101.56 -390.12,209.05 -592.17,297.4 -194.65,85.1 -397.55,152.02 -598.76,221.56 -128.69,44.47 -237.96,8.62 -353.08,-70.04 -387.55,-265.22 -563.41,-662.32 -702.72,-1084.27 -46.98,-142.17 -79.51,-289.05 -118.7,-433.81 -154.53,-569.68 -59.6,-1123.46 116.27,-1668.82 50.38,-156.39 133.19,-302.26 200.7,-453.08 13.78,-30.84 28.04,-61.59 38.11,-93.78 24.26,-77.65 95.27,-106.84 149.74,-49.18 46.39,49.1 91.2,112.57 106.19,176.72 145.04,622.45 283.65,1246.39 424.04,1869.88 7.42,32.84 14.62,65.74 25.27,114.07 14.91,-24.9 24.48,-35.69 28.4,-48.11 192.85,-614.51 519.65,-1156.09 922.76,-1651.06 222.19,-272.86 467.57,-527.29 709.38,-783.53 78.5,-83.21 177.43,-147.81 270.15,-216.76 52.1,-38.74 112.47,-61.44 177.13,-27.25 65.67,34.76 81.94,99.34 72.17,162.72 -15.05,98.07 -29.76,199.99 -68.87,289.84 -387.56,891.38 -799.73,1770.12 -1363.14,2568.34 -17.93,25.49 -34.48,51.81 -51.67,77.73l6.83 4.91z"/>
  <path class="fil2" d="M-2024.68 16577.1c-164.36,-290.4 -338.66,-575.75 -490.76,-872.45 -196.63,-383.63 -369.85,-779.17 -563.33,-1164.53 -265.58,-528.79 -539.51,-1053.37 -813.14,-1578.18 -32.19,-61.72 -84.03,-113.7 -128.78,-168.51 -39.39,-48.39 -83.27,-98.14 -36.11,-160.57 47.04,-62.46 110.34,-39.9 163.81,-8.58 505.67,295.9 991.43,614.37 1380.06,1065.88 494.4,574.47 922.34,1189.21 1209.04,1893.93 71.94,177.01 117.99,364.66 173.22,548.16 63.53,211.6 133.47,421.95 183.08,636.91 47.74,206.99 76.15,418.75 107.34,629.3 19.99,134.68 -35.32,235.54 -133.89,334.08 -332.1,332.11 -754.84,431.75 -1195.28,490.84 -148.38,19.91 -298.84,24.85 -448.21,36.76 -588.39,46.74 -1115.2,-148.54 -1618.81,-422.11 -144.31,-78.27 -272.5,-186.55 -408.39,-280.69 -27.62,-19.28 -55.31,-38.97 -85.01,-54.75 -71.87,-38.17 -87.51,-113.34 -20.76,-156.23 56.89,-36.55 127.4,-68.95 193.35,-71.8 638.43,-27.84 1277.2,-49.04 1915.91,-72.08 33.62,-1.16 67.23,-2.15 116.78,-3.79 -21.71,-19.28 -30.49,-30.63 -42.05,-36.76 -568.48,-302.76 -1040.54,-723.86 -1452.7,-1211.4 -227.18,-268.66 -432.03,-556.71 -639.22,-841.55 -67.31,-92.58 -112.57,-201.71 -163.31,-305.56 -28.54,-58.31 -39.67,-121.82 5.85,-179.13 46.19,-58.11 112.71,-62.17 173.22,-40.91 93.57,32.92 191.15,66.18 272.22,121.13 804.73,545.22 1592.4,1112.33 2273.07,1813.21 21.69,22.34 44.53,43.54 66.81,65.25l5.99 -5.87z"/>
  <path class="fil2" d="M23471.27 12565.4c408.19,-439 851.91,-841.91 1410.04,-1071.72 346.08,-142.53 720.22,-231.82 1090.08,-297.85 380.69,-67.94 771.67,-78.86 1158.15,-113.97 31.77,-2.93 67.94,-8.49 95.29,3.14 42.03,17.76 100.98,43.03 110.55,76.94 10.07,35.89 -27.84,86.35 -48.03,128.96 -5.28,11 -22.28,17.21 -34.76,23.99 -545.08,294.33 -1052.89,660.76 -1641.14,871.88 -435.95,156.37 -878.6,293.9 -1316.89,444.22 -222.25,76.3 -442.45,159.08 -661.19,245.09 -113.06,44.47 -195.64,38.48 -257.45,-46.39 -65.31,-89.57 2.79,-151.88 53.53,-215.69 13.36,-16.69 27.84,-32.47 41.82,-48.6z"/>
  <path class="fil2" d="M24130.34 13750.55c-174.1,256.86 -420.31,422.66 -698.54,545.14 -143.38,63.08 -217.61,24.34 -243.22,-131.47 -37.61,-228.76 53.81,-429.59 171.36,-614.37 223.31,-351.1 570.83,-549.57 934.9,-720.65 39.41,-18.49 121.13,-10.92 144.9,17.12 32.75,38.68 49.89,113.34 37.61,163.79 -65.67,269.02 -181.22,517.1 -347.01,740.44z"/>
  <path class="fil2" d="M24402.69 13965.31c311.18,-418.19 684.68,-707.66 1160.22,-857.9 27.05,-8.5 56.19,-24.99 81.8,-21.13 42.61,6.5 102.41,15.06 119.63,43.89 20.55,34.41 21.18,101.84 -0.22,135.69 -38.91,61.59 -94.57,116.53 -153.38,160.94 -389.05,294.05 -780.68,584.61 -1171.65,876.09 -14.2,10.64 -29.7,27.13 -44.83,27.41 -43.04,0.99 -101.26,10.48 -125.03,-12.64 -23.49,-22.84 -29.48,-90.27 -12.93,-122.69 45.03,-88.29 106.07,-168.36 146.39,-229.66z"/>
  <path class="fil0" d="M24099.93 19777.79c-19.28,-60.87 -54.97,-113.54 -41.34,-144.23 23.35,-52.54 73.24,-96.56 119.55,-134.9 822.94,-680.17 1646.85,-1359.08 2470.84,-2037.89 53.82,-44.32 105.94,-93.14 166.31,-125.98 30.32,-16.49 77.73,-1.72 117.4,-1.07 -6.64,42.4 -1.84,91.79 -22.84,125.19 -24.12,38.54 -70.93,62.8 -107.92,93.43 -862.1,714.78 -1724.21,1429.66 -2586.6,2144.16 -26.12,21.57 -55.6,39.33 -115.4,81.29z"/>
  <path class="fil0" d="M24907.65 20386.4c-15.21,-67.88 -43.33,-118.98 -30.69,-156.45 15.2,-45.12 61.24,-83.07 100.35,-116.56 734,-627.78 1468.27,-1255.45 2205.26,-1879.81 55.25,-46.88 128.55,-153.01 205.27,-54.81 69.66,89.14 -44.67,132.03 -98.63,178.59 -754.27,650.82 -1509.96,1300.12 -2265.79,1949.25 -25.35,21.83 -55.25,38.39 -115.77,79.79z"/>
  <path class="fil0" d="M23884.1 19378.68c-15.36,-71.37 -42.41,-122.03 -30.33,-160.51 14.34,-45.83 57.38,-86.8 96.2,-120.34 708.51,-610.51 1417.89,-1219.88 2128.26,-1828.06 49.24,-42.04 104.56,-81.35 163.8,-105.27 30.32,-12.28 83.51,2.49 110.56,24.54 12.99,10.5 -7.79,67.25 -19.42,101 -4.86,13.86 -25.47,22.64 -39.39,32.98 -812.3,602.59 -1560.42,1279.78 -2295.41,1972.31 -24.06,22.68 -53.62,39.47 -114.27,83.35z"/>
  <path class="fil0" d="M24523.6 19991.98c-28.41,-16.2 -62.96,-24.33 -68.67,-41.9 -9.49,-29.03 -13.07,-74.29 3.22,-94.84 40.18,-50.32 90.41,-93.77 141.38,-134.03 720.16,-569.42 1440.5,-1138.62 2163.94,-1703.89 34.05,-26.62 97.28,-15.98 146.88,-22.76 -16.97,51.45 -17.98,122.34 -53.45,151.23 -380.63,311.12 -766.39,616.03 -1151.38,921.79 -361.29,286.85 -723.15,572.68 -1085.16,858.47 -29.9,23.61 -63.08,43.17 -96.76,65.93z"/>
  <path class="fil0" d="M25788.09 17128.02c-37.75,38.97 -69.8,77.65 -107.33,109.84 -534.88,459.44 -1072.74,915.36 -1604.38,1378.56 -113.84,99.22 -202.42,226.98 -309.54,334.89 -30.13,30.33 -84.59,36.62 -127.77,53.88 -2.93,-50.6 -22.47,-108.26 -4.77,-150.1 24.48,-57.88 72.93,-107.83 118.19,-154.3 569.54,-584.47 1191.84,-1108.84 1840.04,-1602.89 36.34,-27.62 92.44,-33.32 140.47,-38.88 12.7,-1.44 29.84,36.11 55.09,69z"/>
  <path class="fil0" d="M-122.59 32004.7c-60.96,19.18 -113.56,54.86 -144.33,41.33 -52.44,-23.35 -96.49,-73.24 -134.83,-119.63 -680.24,-822.86 -1359.05,-1646.85 -2037.88,-2470.86 -44.33,-53.8 -93.21,-105.83 -126.04,-166.22 -16.43,-30.41 -1.64,-77.71 -1.02,-117.47 42.33,6.64 91.79,1.93 125.14,22.91 38.6,24.11 62.79,71.01 93.41,107.83 714.88,862.11 1429.66,1724.29 2144.18,2586.69 21.68,26.11 39.39,55.53 81.37,115.42z"/>
  <path class="fil0" d="M485.91 31196.89c-67.79,15.21 -118.96,43.34 -156.37,30.77 -45.09,-15.27 -83.01,-61.18 -116.55,-100.35 -627.87,-734 -1255.51,-1468.28 -1879.88,-2205.34 -46.81,-55.25 -153.01,-128.47 -54.8,-205.27 89.14,-69.65 132.03,44.67 178.56,98.63 650.93,754.34 1300.12,1510.03 1949.33,2265.8 21.83,25.41 38.4,55.31 79.71,115.76z"/>
  <path class="fil0" d="M-521.72 32220.43c-71.38,15.37 -122.04,42.42 -160.52,30.34 -45.88,-14.34 -86.85,-57.29 -120.4,-96.18 -610.44,-708.47 -1219.82,-1417.83 -1828.06,-2128.28 -42.04,-49.1 -81.37,-104.55 -105.28,-163.79 -12.2,-30.33 2.57,-83.52 24.56,-110.57 10.56,-12.91 67.37,7.85 100.99,19.49 13.92,4.79 22.7,25.41 32.98,39.33 602.66,812.29 1279.85,1560.5 1972.38,2295.47 22.61,24.05 39.47,53.61 83.35,114.19z"/>
  <path class="fil0" d="M91.58 31580.95c-16.27,28.48 -24.34,62.96 -41.88,68.66 -29.05,9.49 -74.31,13.21 -94.87,-3.21 -50.31,-40.1 -93.85,-90.36 -134.03,-141.32 -569.48,-720.23 -1138.61,-1440.59 -1703.88,-2164.01 -26.61,-34.05 -16.05,-97.27 -22.82,-146.82 51.45,16.91 122.32,17.99 151.29,53.39 311.12,380.7 615.95,766.39 921.79,1151.52 286.76,361.15 572.69,723.08 858.46,1085.08 23.61,29.98 43.12,63.1 65.94,96.71z"/>
  <path class="fil0" d="M-2772.38 30316.45c38.97,37.82 77.67,69.8 109.86,107.33 459.33,534.94 915.33,1072.8 1378.47,1604.41 99.28,113.9 227.04,202.53 334.96,309.6 30.26,30.1 36.54,84.49 53.87,127.82 -50.59,2.83 -108.25,22.34 -150.15,4.63 -57.89,-24.48 -107.86,-72.85 -154.25,-118.19 -584.53,-569.48 -1108.83,-1191.7 -1602.86,-1839.98 -27.7,-36.31 -33.41,-92.42 -38.91,-140.53 -1.5,-12.7 36.11,-29.84 69.01,-55.09z"/>
  <path class="fil1" d="M29602.02 36178.49c0,427.37 -7607,773.73 -16990.77,773.73 -9383.84,0 -16990.87,-346.36 -16990.87,-773.73 0,-427.31 7607.03,-773.76 16990.87,-773.76 9383.77,0 16990.77,346.45 16990.77,773.76z"/>
  <path class="fil3" d="M23674.96 36017.38c20.22,0 40.63,-3.56 60.54,-11.47 84.93,-33.34 126.61,-129.34 93.2,-214.27l-3304.82 -8396.68c-33.47,-85.02 -129.32,-126.76 -214.25,-93.29 -84.94,33.4 -126.69,129.4 -93.29,214.27l3304.82 8396.73c25.7,65.1 87.93,104.71 153.8,104.71z"/>
  <path class="fil3" d="M14918.28 36017.38c65.95,0 128.19,-39.61 153.82,-104.71l3304.82 -8396.73c33.49,-84.87 -8.27,-180.87 -93.28,-214.27 -84.79,-33.4 -180.79,8.27 -214.26,93.29l-3304.76 8396.68c-33.46,84.93 8.27,180.93 93.21,214.27 19.84,7.83 40.34,11.47 60.45,11.47z"/>
  <path class="fil3" d="M16447.44 32132.44c18.13,0 36.54,-3.02 54.61,-9.33l5007.69 -1755.07c86.15,-30.26 131.47,-124.46 101.28,-210.61 -30.12,-86.08 -124.46,-131.48 -210.61,-101.28l-5007.63 1755.05c-86.15,30.19 -131.47,124.47 -101.28,210.61 23.83,68.04 87.72,110.63 155.94,110.63z"/>
  <path class="fil3" d="M22146.17 32132.44c68.24,0 132.05,-42.59 155.96,-110.63 30.19,-86.14 -15.21,-180.42 -101.36,-210.61l-5007.63 -1755.05c-86.15,-30.2 -180.35,15.2 -210.55,101.28 -30.19,86.15 15.13,180.35 101.28,210.61l5007.63 1755.07c18.07,6.31 36.54,9.33 54.67,9.33z"/>
  <path class="fil3" d="M17498.41 36017.38c20.19,0 40.67,-3.56 60.51,-11.47 84.87,-33.34 126.61,-129.34 93.29,-214.27l-3304.91 -8396.68c-33.46,-85.02 -129.4,-126.76 -214.25,-93.29 -84.87,33.4 -126.69,129.4 -93.29,214.27l3304.91 8396.73c25.55,65.1 87.93,104.71 153.74,104.71z"/>
  <path class="fil3" d="M8741.79 36017.38c65.87,0 128.18,-39.61 153.74,-104.71l3304.9 -8396.73c33.4,-84.87 -8.35,-180.87 -93.29,-214.27 -84.93,-33.4 -180.87,8.27 -214.27,93.29l-3304.82 8396.68c-33.41,84.93 8.35,180.93 93.22,214.27 19.91,7.83 40.39,11.47 60.52,11.47z"/>
  <path class="fil3" d="M10270.87 32132.44c18.21,0 36.53,-3.02 54.66,-9.33l5007.64 -1755.07c86.14,-30.26 131.48,-124.46 101.28,-210.61 -30.11,-86.08 -124.47,-131.48 -210.61,-101.28l-5007.64 1755.05c-86.08,30.27 -131.46,124.47 -101.28,210.61 23.83,68.04 87.73,110.63 155.95,110.63z"/>
  <path class="fil3" d="M15969.53 32132.44c68.3,0 132.19,-42.59 156.03,-110.63 30.18,-86.14 -15.22,-180.42 -101.28,-210.61l-5007.72 -1755.05c-86.14,-30.2 -180.34,15.2 -210.55,101.28 -30.18,86.15 15.13,180.35 101.28,210.61l5007.64 1755.07c18.12,6.31 36.55,9.33 54.6,9.33z"/>
  <path class="fil2" d="M10075.25 26432.86c-478.07,641.77 -234.18,1562.63 499.6,1881.8 2243.23,975.87 6821.41,2459.07 10045.96,107.27 175.99,-128.33 348.08,-267.93 515.38,-420.17 57.66,-52.1 114.69,-105.77 171.07,-160.94 3240.88,-3167.37 143.47,-7979.15 -790.1,-9267.86 -140.67,-194.14 -397.89,-264.73 -616.94,-167.23l-3.7 1.66c-43.82,19.2 -87.65,38.6 -131.18,58.16 -4962.54,2237.82 -8244.39,6026.2 -9690.09,7967.31z"/>
  <path class="fil3" d="M21107.07 20620.56c575.11,1152.11 1206.47,2876.04 949.17,4544.65 -224.17,1453.64 -748.61,2504.02 -1435.43,3256.72 175.99,-128.33 348.08,-267.93 515.38,-420.17 536.07,-764.04 891.95,-1704.73 1062.94,-2814.72 116.56,-754.98 66.89,-1582.04 -146.88,-2458.41 -170.65,-699.17 -445.5,-1431.02 -817.29,-2175.44 -603.37,-1208.05 -1272.14,-2062.16 -1338.44,-2145.8 -43.82,19.2 -87.65,38.6 -131.18,58.16 2.42,9.13 7,17.99 13.41,25.9 6.78,8.64 702.88,876.17 1328.32,2129.11z"/>
  <path class="fil3" d="M18792.74 20860.81c0,0 1480.55,4604.3 200.34,6256.65 -1160.79,1498.33 -3420.37,1600.46 -7080.93,-131.55 -528.02,-249.8 -771.39,-435.78 -470.85,-903.42 2406.89,-2819.14 4840.48,-5121.76 7351.44,-5221.68z"/>
  <path class="fil0" d="M8792.47 23015.39c32.24,378.07 349.07,663.49 721.86,663.49 20.76,0 41.39,-0.87 62.45,-2.51 531.57,-45.38 1028.11,-106.7 1488.18,-183.92 23.34,-3.78 46.75,-7.71 69.65,-11.92 675.98,-116.33 1271.29,-266.71 1779.75,-450.63 775.4,-280.35 1278.44,-609.54 1495.12,-978.75 899.71,-1534.28 1728.7,-3594.52 1763.54,-3681.53 149.03,-371.78 -31.56,-794.15 -403.4,-943.18 -371.99,-148.82 -794.09,31.76 -943.19,403.6 -3.99,10.08 -207.25,514.75 -514.03,1196.64 -174.78,388.12 -383.26,833.84 -607.45,1278.43 -11.91,23.18 -23.61,46.31 -35.32,69.51 -159.16,312.54 -325.53,623.36 -493.47,911.35 -72.51,66.73 -341.59,244.81 -906.44,431.95 -96.2,31.82 -196.77,62.74 -301.61,92.21 -33.06,9.35 -66.52,18.7 -100.14,27.62 -469.19,126.55 -1015.99,230.46 -1619.94,308.41 -24.97,3.5 -50.32,6.56 -75.79,9.85 -231.82,28.69 -471.64,53.74 -718.73,74.8 -399.19,34.17 -695.24,385.41 -661.04,784.58z"/>
  <path class="fil4" d="M13669.63 20374.62c225.11,309.75 379.48,664.04 455.35,1041.89 8.64,44.25 76.51,25.35 67.59,-18.7 -79.79,-398.25 -246.09,-769.32 -487.62,-1092.7 -11.91,23.18 -23.61,46.31 -35.32,69.51z"/>
  <path class="fil4" d="M10172.24 22156.01c227.24,357.21 767.97,361.22 1131.1,219.39 285.29,-111.33 514.96,-313.32 664.77,-565.27 -33.06,9.35 -66.52,18.7 -100.14,27.62 -127.75,189.79 -306.55,345.31 -523.15,444.51 -325.04,148.82 -866.76,188.41 -1096.79,-136.1 -24.97,3.5 -50.32,6.56 -75.79,9.85z"/>
  <path class="fil4" d="M10103.94 22564.25c437.08,156.81 787.79,503.74 961.02,928.2 23.34,-3.78 46.75,-7.71 69.65,-11.92 -179.13,-450.43 -546.78,-817.29 -1011.9,-984.16 -42.83,-15.2 -61.1,52.6 -18.77,67.88z"/>
  <path class="fil5" d="M13209.93 21290.32c157.58,75.81 288.11,189.72 386.76,333.83 25.62,37.46 -35.2,72.57 -60.53,35.46 -91.99,-134.32 -215.12,-238.1 -361.72,-308.69 -40.69,-19.55 -5.06,-80.16 35.49,-60.6z"/>
  <path class="fil0" d="M13352.8 25388.67c0,0 593.19,1142.03 1922.93,894.1 18.27,-3.3 36.68,-6.86 55.17,-10.65 454.2,-87.21 962.8,-217.75 1511.3,-410.39 17.05,-6.07 34.19,-12.12 51.53,-18.19 408.96,-145.97 839.49,-326.46 1286.14,-549.23 0,0 -91,-210.32 -173.79,-536.42 -4.94,-19.48 -9.85,-39.33 -14.71,-59.46 -65.31,-272.86 -121.69,-616.8 -117.97,-983.23 0.2,-17.76 0.43,-35.53 1.13,-53.37 3.79,-149.68 18.27,-302.99 46.54,-456.22 15.98,-85.93 40.04,-177.37 71.37,-273.49 5.65,-17.14 11.21,-34.2 17.34,-51.53 15.22,-45.4 32.33,-91.45 50.74,-138.33 132.48,-338.31 335.18,-719.94 564,-1104.56 9.35,-15.98 18.92,-31.84 28.26,-47.54 183.5,-305.12 382.14,-610.94 573.97,-896.87 10.28,-15.19 20.56,-30.41 30.41,-45.38 146.54,-216.84 288.28,-421.83 416.04,-605.61 13.62,-19.12 26.89,-38.32 40.04,-57.09 29.48,-42.25 57.94,-83.44 85.64,-123.25 29.19,-41.9 57.74,-82.08 85.15,-120.56 10.77,-15.14 21.47,-30.33 31.97,-44.82 145.61,-203.12 257.93,-353.16 280.15,-440.15 18.27,-71.81 35.32,-146.24 47.24,-222.33 2.79,-18.41 5.42,-37.18 7.77,-55.68 5.14,-45.66 8.43,-91.91 8.15,-138.46 0,-23.61 -0.93,-47.1 -2.79,-70.73 -3.5,-47.24 -10.99,-94.99 -23.41,-142.96 -6.07,-24.05 -13.56,-48.17 -22.48,-72.28 -6.71,-18.72 -14.48,-37.7 -22.92,-56.39 -6.78,-14.71 -13.98,-29.48 -22.05,-44.19 -63.81,-121.04 -166.59,-240.59 -324.25,-355.5 -14.55,-10.48 -29.46,-21.07 -44.88,-31.55 -20.55,-14.06 -42.12,-27.83 -64.39,-41.61 -23.19,-14.49 -47.24,-28.83 -72.51,-42.89 -57.1,-32.27 -119.13,-64.02 -186.78,-95.21 -85.86,-39.53 -164.67,-78.8 -236.95,-117.69l-8.22 -4.43 -13.78 -7.51c-127.6,-69.71 -233.81,-137.59 -322.45,-201.46 -20.13,-14.06 -38.82,-28.27 -57.09,-42.33 -70.89,-54.54 -128.47,-105.56 -175.51,-152.81 -13.27,-12.92 -25.69,-25.69 -37.41,-38.33 -138.1,-148.1 -164.5,-244.1 -164.5,-244.1l-1038.18 25.55 -67.6 1.64 -590.82 14.49c0,0 -249.45,126.41 -525.31,194.42 -28.55,7 -57.3,13.36 -86.15,18.92 -36.25,6.86 -72.28,12.71 -107.83,16.41 -21.26,2.57 -42.32,4.43 -63.16,5.42 -24.06,1.58 -47.97,2.08 -71.6,1.44 -246.16,-7.06 -455.07,-24.85 -609.52,86.06 -19.2,14.06 -38.12,30.13 -55.74,48.4 -50.96,52.68 -94.28,124.26 -129.6,222.12 -7.71,20.84 -14.28,41.59 -20.07,63.08l-5.2 18.78c-2.99,10.98 -5.64,22.27 -8.21,33.2 -2.8,11.97 -5.14,24.11 -7.71,36.31 -35.33,181.58 -29.2,374.14 -34.4,544.72 -2.56,80.86 -7.22,157.01 -20.35,224.83 -3.28,18.05 -7.2,35.55 -11.91,52.38 -16.13,57.6 -40.04,107.41 -76.01,147.24 -102.07,112.27 -282.42,244.24 -434.52,430.51 -6.35,7.65 -12.42,15.22 -18.55,23.13 -10.22,13.35 -20.35,26.7 -30.21,40.26l-11.91 16.34c-76.94,109.5 -140.81,236.17 -175.01,385.84 -2.06,8.92 -3.92,17.78 -5.62,26.91 -2.57,12.42 -4.86,24.84 -7,37.75l-2.08 15.42c-5.2,34.13 -8.7,69.45 -10.06,105.48 -5.42,113.99 5.14,228.4 26.2,343.31 3.56,22.7 8.19,44.96 12.85,67.88 14.99,71.58 33.46,143.18 53.53,215.04 7.77,27.27 15.7,54.67 23.61,82.08 24.42,81.66 50.4,163.31 75.44,244.74 5.57,17.56 10.93,35.33 16.43,52.89 6.27,20.55 12.55,41.39 18.84,62.23l-0.22 0c8.92,28.97 17.35,58.02 25.35,86.79l0 0.29c25.18,89.78 46.95,178.92 62.65,267.64 4.21,22.7 7.71,45.6 10.99,68.58 7.5,53.33 12.22,106.42 13.57,159.11 5.2,179.91 -33.2,420.02 -97.07,684.39 -3.58,13.76 -6.86,27.61 -10.27,41.39l-2.8 10.99c-30.69,121.41 -66.52,247.79 -105.54,375.56 -8.72,28.77 -17.79,57.37 -26.91,86.37l0 0.2c-58.76,185.58 -124.06,372.28 -190.28,550.36 -7.43,19.62 -14.93,39.33 -22.21,58.73 -60.38,159.75 -121.68,311.4 -179.7,447.38 -38.34,90.07 -75.1,178.06 -110.2,263.72l0 0.71c-25.27,61.72 -49.61,121.61 -73.24,181.07l-5.2 13.05 0 0.93c-5.58,13.43 -10.72,25.98 -15.64,39.13 -540.08,1369.05 -379.99,1069.07 -379.99,1069.07z"/>
  <path class="fil4" d="M15587.68 24218.09c241.83,-93.77 511.9,-77.73 762.2,-30.32 270.14,50.96 531.73,143.1 775.1,271.2 137.39,72.59 291.55,171.81 414.4,265.95 -22.36,2.99 -44.98,8.7 -66.04,16.4 -281.98,-208.69 -625.78,-378.63 -967.17,-466.19 -243.44,-62.54 -508.01,-101.71 -757.18,-50.4 -266.01,54.61 -467.35,231.19 -581.76,473.92 -45.24,96.15 -75.73,196.27 -96.34,298.62 -15.42,-0.87 -30.92,-1.78 -46.48,-2.65 65.68,-336 216.7,-642.21 563.27,-776.53z"/>
  <path class="fil4" d="M13771.27 24222.38c237.24,65.94 441.57,226.11 554.63,454.57 35.55,71.94 67.88,158.73 82.64,246.88 17.48,3.14 34.76,6.13 52.18,8.92 -10.13,-71.23 -30.69,-140.97 -54.97,-203.4 -107.75,-276.23 -339.58,-476.86 -614.94,-555.58 -6.55,16.28 -12.98,32.47 -19.54,48.61z"/>
  <path class="fil4" d="M17401.91 17178.28c-34.2,-3.08 -29.34,-56.18 4.77,-53.03 34.19,3.14 29.34,56.17 -4.77,53.03z"/>
  <path class="fil5" d="M18286.15 12836.4c0,0 79.65,-1157.87 811.71,-1170.23 732.08,-12.34 576.39,835.56 576.39,835.56 0,0 425.68,-239.52 307.71,302.34 -117.85,541.87 -1147.03,459.14 -1147.03,459.14l-548.78 -426.81z"/>
  <path class="fil0" d="M18333.67 12576.89c0,0 614.09,162.08 809.87,692.17 0,0 -87.16,111.63 -295.2,141.17 0,0 -88.65,-354.58 -562.19,-573.83 0,0 -66.38,-169.58 47.52,-259.51z"/>
  <path class="fil5" d="M15628.22 16756.53c513.54,143.38 2257.02,307.4 3612.88,-273.63 -4.78,-233.82 12.98,-500.83 64.51,-807.8 121.41,-723.22 214.84,-2764.97 -1277.98,-2993.08 -1492.89,-228.03 -2644.71,752.55 -2324.02,2102.14 131.6,553.78 41.53,1287.92 -75.39,1972.37z"/>
  <path class="fil6" d="M16110.2 14760.1c0,0 -175.65,7.85 -218.74,229.67 -43.2,221.98 53.37,599.4 281.28,563.29 227.89,-36.11 -62.54,-792.96 -62.54,-792.96z"/>
  <path class="fil7" d="M16087.02 15403.3c-120.34,0.51 -217.7,98.86 -217.19,219.13 0.57,120.26 98.85,217.67 219.11,217.11 120.33,-0.43 217.75,-98.77 217.18,-219.05 -0.5,-120.26 -98.85,-217.75 -219.1,-217.19zm2.34 526.39c-170,0.79 -308.89,-136.91 -309.68,-306.91 -0.71,-169.93 136.97,-308.82 306.91,-309.61 170.01,-0.71 308.9,136.89 309.69,306.9 0.76,170 -136.97,308.89 -306.92,309.62z"/>
  <line class="fil8" x1="16654.92" y1="16520.51" x2="16654.92" y2= "16520.65" />
  <path class="fil9" d="M18479.48 17217.53c0,0 -329.23,562.48 -987,629.87 -835.56,85.5 -915.58,-276.43 -915.58,-276.43 39.84,-111.21 65.53,-222.04 80.38,-341.38 5.57,-45.24 9.71,-91.71 12.28,-139.96 7.35,-131.53 4.35,-275.64 -5.92,-442.43 -2.37,-39.05 -5.14,-79.65 -8.44,-121.49l-0.28 -5c580.9,-112.54 1062.17,-348.28 1401.76,-759.47l88.43 -47.89 59.58 -32.47 9.37 33.97 -15.42 106.5c-73.94,500.39 22.2,921.49 280.84,1396.18z"/>
  <path class="fil5" d="M17639.93 16187.05c-132.9,269.51 -434.88,743.49 -970.37,902.58 7.35,-131.53 4.35,-275.64 -5.92,-442.43 -2.37,-39.05 -5.14,-79.65 -8.44,-121.49 11.35,1.78 22.92,3.22 34.47,4.43 312.54,33.69 659.77,-113.84 950.26,-343.09z"/>
  <path class="fil9" d="M18938.35 14881.01c6.78,312.53 -249.45,701.08 -658.07,721.29l-2.13 0.14 -0.14 0 -8.64 0.57c-6.21,18.13 -13.43,35.91 -21.06,54.1 -3.21,7.85 -6.71,15.84 -10.05,23.63l-1.16 2.21c-242.94,536.58 -992.78,865.54 -1401.74,885.59 -146.03,7.06 -245.02,-23.69 -276.65,-29.84 -435.86,-84.65 -529.86,-668.98 -471.63,-1118.48 8.64,-65.23 20.35,-127.46 34.55,-185.06l3.06 -11.86c0,0 -159.08,-623.57 -199.12,-896.13 -77.31,-528.39 214.9,-1073.45 1374.55,-1204.71 1159.82,-131.38 1454,583.82 1544.07,964.68 15.14,63.37 10.56,443.5 -51.59,506.17 111.42,53.74 143.46,182.63 145.75,287.7z"/>
  <path class="fil5" d="M16216.84 15041.6c15.42,86.29 64.24,149.74 109.05,141.75 44.83,-7.99 68.75,-84.37 53.33,-170.66 -15.36,-86.28 -64.17,-149.81 -108.99,-141.82 -44.83,7.99 -68.74,84.45 -53.39,170.73z"/>
  <path class="fil5" d="M16526.67 14946.68l10.56 -9.79c6.21,-11.13 2.14,-25.25 -9.07,-31.46 -9.34,-5.28 -231.32,-125.99 -403.11,21.62 -9.71,8.42 -10.78,23.05 -2.49,32.68 8.34,9.79 22.99,10.84 32.76,2.57 147.38,-126.83 348.28,-17.56 350.29,-16.41 6.77,3.78 14.48,3.78 21.06,0.79z"/>
  <path class="fil5" d="M16971.18 14920.48c15.33,86.29 64.09,149.73 108.9,141.74 44.83,-7.99 68.75,-84.43 53.33,-170.71 -15.35,-86.29 -64.09,-149.68 -108.92,-141.68 -44.82,7.93 -68.67,84.36 -53.31,170.65z"/>
  <path class="fil5" d="M17320.76 14851.25l11.71 -8.28c7.55,-10.42 5.34,-24.9 -5,-32.47 -8.57,-6.35 -213.48,-154.25 -402.62,-29.48 -10.71,7.06 -13.62,21.49 -6.64,32.19 7.14,10.7 21.42,13.64 32.27,6.56 162.38,-107.19 347.72,26.7 349.5,28.06 6.21,4.55 13.92,5.56 20.78,3.42z"/>
  <path class="fil6" d="M16644.72 15872.15c13.13,-0.99 26.77,-2.91 41.17,-5.85 139.11,-28.83 224.98,-170.71 228.54,-176.72 12.42,-20.84 5.56,-47.81 -15.28,-60.23 -20.84,-12.42 -47.75,-5.64 -60.17,15.2 -1.05,1.72 -70.36,114.83 -170.85,135.61 -104.07,21.54 -152.73,-36.34 -154.73,-38.83 -15.22,-18.63 -42.75,-21.85 -61.61,-6.92 -18.77,14.91 -22.33,41.96 -7.63,60.94 3,3.95 68.51,86.73 200.56,76.8z"/>
  <path class="fil6" d="M18236.32 15359.34c16.91,-3.2 30.83,-16.49 33.82,-34.47 49.89,-295.26 397.92,-430.31 401.48,-431.58 21.77,-8.28 32.75,-32.62 24.56,-54.39 -8.28,-21.85 -32.47,-32.83 -54.32,-24.62 -16.21,6.07 -396.97,152.95 -454.85,496.53 -3.92,22.98 11.55,44.75 34.54,48.61l14.77 -0.08z"/>
  <path class="fil6" d="M18599.53 15187.13l15.14 -6.01c19.56,-12.62 25.27,-38.68 12.62,-58.31 -3.42,-5.42 -86.21,-130.95 -257.51,-120.33 -23.12,1.49 -40.88,21.48 -39.39,44.75 1.42,23.2 21.41,40.91 44.75,39.55 122.18,-7.71 180.57,80.79 181.22,81.64 9.49,14.85 26.91,21.77 43.17,18.71z"/>
  <path class="fil10" d="M16087.08 15420.22c8.64,-65.23 20.35,-127.46 34.55,-185.06 116.76,12.28 201.2,47.83 201.27,90.15 0.14,46.45 -101.06,85.56 -235.82,94.91z"/>
  <path class="fil10" d="M17336.09 15410.3c-160.86,0 -290.83,-42.18 -290.97,-94.7 -0.22,-52.97 131.53,-96.5 294.27,-97.15 1.27,0 2.57,0 3.84,0 160.89,0 290.91,42.18 291.22,94.72 0.2,53.03 -131.63,96.49 -294.35,97.13 -1.36,0 -2.71,0 -4.01,0z"/>
  <path class="fil6" d="M18280.22 15602.36l-2.07 0.08 -0.22 0.06 -8.64 0.51c-6.13,18.13 -13.35,35.97 -20.98,54.1 -3.27,7.85 -6.71,15.92 -10.05,23.69l-1.16 2.15c-46.67,-6.36 -105.62,-22.48 -159.22,-58.96 -31.48,-21.55 -61.24,-50.03 -85.37,-88.49 -12.55,-19.63 -6.64,-45.75 13.21,-58.11 19.56,-12.62 45.6,-6.78 58.16,12.99 27.05,42.55 64.66,69.23 102.58,85.86 25.69,11.21 51.38,17.85 74.21,21.43 14.85,2.63 28.42,3.98 39.55,4.69z"/>
  <path class="fil7" d="M18176.73 15594.8c29.04,8.57 62.58,11.43 89.85,12.5l-0.28 4.49c0.57,120.34 98.85,217.69 219.11,217.19 120.27,-0.57 217.69,-98.85 217.12,-219.11 -0.36,-108.56 -80.44,-198.13 -184.43,-214.33 -26.62,-30.92 -27.84,-61.31 -0.36,-91.09 153.82,16.63 274.22,146.68 275,304.99 0.79,170.01 -136.96,308.9 -306.97,309.69 -169.94,0.77 -308.83,-136.97 -309.62,-306.98l0.58 -17.35z"/>
  <path class="fil6" d="M16755.91 16063.72c59.6,-12.62 91.37,-54.66 93.29,-57.23 9.06,-12.22 6.41,-29.62 -5.85,-38.62 -12.28,-9.07 -29.48,-6.5 -38.62,5.64 -2.06,2.71 -43.32,54.81 -120.96,32.84 -14.71,-4.15 -29.99,4.49 -34.05,19.12 -4.21,14.7 4.35,30.04 19.05,34.19 33.61,9.42 62.74,9.2 87.14,4.06z"/>
  <path class="fil5" d="M18503.39 13439.71c-255.72,-252.65 -607.59,-451.93 -1024.77,-418.25 -585.23,47.26 -1122.46,264.23 -1415.01,588.05 -141.12,155.67 -225.4,335.81 -231.25,534.02 -18.27,609.71 110.2,487.96 110.2,487.96 0,0 -3.78,-14.06 11.55,-143.81l0.23 0c9.06,-78.29 25.04,-198.57 53.31,-383.06 67.37,-440.16 1462.27,-521.81 1378.13,-236.81 0,0 -3.64,35.41 1.56,89.65 5.28,58.16 21.14,137.87 62.39,218.25 11.21,1.42 21.97,3.06 32.11,4.56 140.47,22.49 256.52,59.96 352.51,106.5l0.51 0.42c12.2,8.36 227.02,157.87 201.69,380.78 -25.69,229.38 -103.2,529.86 51.02,469.84 154.17,-60.17 202,-247.03 202,-247.03l0.22 -0.2c80.22,-103.99 180.2,-208.49 331.01,-262.08 42.97,-402.61 48.39,-812.5 -117.41,-1188.79z"/>
  <path class="fil5" d="M18590.69 13698.09c-421.1,-134.18 -1086.57,189.91 -1203.35,259.37 5.28,58.16 21.14,137.87 62.39,218.25 11.21,1.42 21.97,3.06 32.11,4.56 140.47,22.49 256.52,59.96 352.51,106.5l0.51 0.42c12.2,8.36 227.02,157.87 201.69,380.78 -25.69,229.38 -213.91,1454.2 26.12,1639.42 486.83,375.7 289.41,-1419.52 289.41,-1419.52 80.3,-104 117.91,-205.78 268.72,-259.37 150.68,-326.74 87.66,-634.08 -30.11,-930.41z"/>
  <path class="fil5" d="M18496.47 13675.95c0,0 260.59,358.59 124.33,952.55 0,0 200.92,-55.32 297.56,-22.56 96.49,32.75 188.84,-320.11 85.14,-641.14 -103.69,-321.03 -569.4,-705.37 -569.4,-705.37 0,0 -26.26,312.39 62.37,416.52z"/>
  <path class="fil6" d="M16599.46 15466.12c-6.49,0.43 -13.19,-1.01 -19.26,-4.35l-161.39 -89.72c-10.9,-6.07 -17.9,-17.48 -18.12,-30.05 -0.29,-12.56 6,-24.34 16.71,-30.97 123.83,-76.8 197.13,-192.48 230.6,-364.07 3.72,-19.2 22.27,-31.84 41.53,-27.98 19.2,3.7 31.77,22.34 27.98,41.54 -33.04,169.29 -101.76,290.7 -214.47,377.34l111.64 61.96c16.97,9.55 23.18,31.12 13.61,48.18 -6.05,10.98 -17.12,17.42 -28.83,18.12z"/>
  <path class="fil7" d="M16771.13 15034.75c14.76,195.64 185.98,342.8 381.77,327.95 195.61,-14.77 342.72,-186.07 327.87,-381.77 -14.85,-195.64 -185.99,-342.72 -381.69,-327.95 -195.7,14.85 -342.8,186.07 -327.95,381.77zm-66.24 4.99c-17.56,-232.09 157.01,-435.38 389.11,-452.92 232.18,-17.56 435.45,156.94 453.01,389.11 17.56,232.18 -157.02,435.45 -389.12,453.01 -232.17,17.56 -435.38,-157.1 -453,-389.2z"/>
  <path class="fil7" d="M15772.62 15110.39c14.77,195.64 185.99,342.74 381.69,327.89 195.72,-14.76 342.8,-185.98 327.97,-381.7 -14.79,-195.62 -186.01,-342.79 -381.77,-327.96 -195.64,14.79 -342.74,186.07 -327.89,381.77zm-66.24 5c-17.56,-232.18 156.96,-435.44 389.13,-452.99 232.16,-17.56 435.45,157.08 452.99,389.2 17.56,232.1 -156.94,435.36 -389.2,452.92 -232.15,17.56 -435.36,-156.95 -452.92,-389.13z"/>
  <path class="fil7" d="M18395.84 14828.34l33.97 -50.25c-17.42,-11.55 -467.69,-295.06 -995.78,-49.81l27.96 60.23c494.91,-229.89 929.85,37.18 933.85,39.83z"/>
  <path class="fil7" d="M16719.15 15033.39l35.77 -55.96c-50.17,-32.25 -170.01,-69.29 -264.87,20.84l45.82 48.11c80.3,-76.44 179.15,-15.64 183.28,-12.99z"/>
  <path class="fil5" d="M16958.98 14544.41c-75.31,57.1 -175.65,-32.04 -126.05,-112.4 25.98,-41.96 69.24,-81.43 140.17,-104.84 308.04,-101.79 548.43,86.63 548.43,86.63 0,0 -331.25,7.85 -480.41,80.3 -34.4,16.71 -60.82,34.11 -82.14,50.31z"/>
  <path class="fil5" d="M16443.8 14626.92c87.93,34.47 160.31,-78.64 90.72,-142.45 -36.4,-33.34 -88.72,-59.52 -163.45,-62.82 -324.09,-14.12 -400.04,200.55 -400.04,200.55 0,0 216.84,-50.59 379.99,-21.4 37.75,6.78 67.79,16.41 92.78,26.12z"/>
  <path class="fil0" d="M18704.23 17366.98c0,0 -11.92,-793.44 -505.16,-935.69 0,0 -408.4,555.78 -1535.58,443.94 0,0 -287.85,34.11 -371.06,591.11 0,0 45.38,624.36 1033.75,546.27 988.51,-78.07 1378.05,-645.63 1378.05,-645.63z"/>
  <path class="fil4" d="M18082.23 16600.95c211.77,285.69 293.12,629.99 341.17,976.58 6.21,44.19 -61.67,62.31 -67.82,17.7 -47.24,-340.88 -125.96,-678.54 -334.37,-959.74 -26.9,-36.26 34.46,-70.37 61.02,-34.54z"/>
  <path class="fil4" d="M17687.96 16799.79c143.89,323.6 184.86,670.76 177.37,1022.26 -0.99,45.11 -71.09,44.24 -70.08,-0.99 7.12,-338.32 -29.62,-674.97 -168.37,-986.74 -18.21,-40.97 42.67,-75.78 61.08,-34.53z"/>
  <path class="fil4" d="M17290.43 16899.71c12.12,347.66 34.39,695.16 17.2,1043.1 -2.29,45.04 -72.37,44.25 -70.17,-0.85 17.14,-347.94 -4.99,-695.52 -17.13,-1043.26 -1.64,-45.04 68.6,-44.02 70.1,1.01z"/>
  <path class="fil4" d="M16831.5 16919.98c-109.78,288.85 -165.52,589.9 -165.52,898.93 0,45.18 -70.16,44.19 -70.08,-0.99 0,-314.96 56.24,-622.95 168.23,-917.42 15.92,-41.9 83.43,-22.84 67.37,19.48z"/>
  <path class="fil4" d="M18573.78 17536.56c-437.17,250.59 -881.39,480.42 -1399.48,461.93 -351.58,-12.57 -785.96,-125.2 -912.71,-496.04 -14.62,-42.75 53.31,-60.17 67.88,-17.78 125.76,367.93 600.37,449.44 938.77,444.73 469.19,-6.64 874.16,-226.48 1270.92,-453.94 39.25,-22.39 73.79,38.62 34.62,61.1z"/>
  <path class="fil4" d="M18449.23 19930.46c81.64,271.43 191.92,530.23 320.11,780.53 12.05,-13.98 24.25,-27.9 36.68,-41.9 -303.48,-600.81 -508.1,-1267.48 -437.73,-1945.1 44.97,-432.02 216.19,-858.32 500.75,-1184.35 -11.86,-8.87 -23.35,-17.56 -34.68,-26.41l-6.66 -5.13c-89.2,102.18 -167.72,213.88 -234.72,333.01 -359.86,639.64 -351.16,1401.4 -143.75,2089.35z"/>
  <path class="fil4" d="M17728.44 17912.54c34.17,201.49 67.8,419.83 -29.62,609.68 -73.6,143.38 -212.49,236.45 -376.34,224.03 -415.68,-31.46 -523.25,-493.17 -549.86,-830.83 -2.57,-33.06 48.46,-42.47 51.11,-9.21 23.97,304.89 98.55,710.72 456.99,782.01 167.01,33.2 313.67,-58.31 382.05,-210.1 79.23,-175.79 45.68,-373.36 14.63,-556.35 -5.57,-32.98 45.46,-42.04 51.04,-9.23z"/>
  <path class="fil4" d="M14947.47 18808.36c72.17,46.1 145.75,89.42 220.83,130.11 125.84,68.44 261.74,130.53 406.11,142.87 297.91,25.55 458,-210.41 474.77,-482.46 19.06,-308.41 -64.37,-635.01 -172.21,-921.43 -42.18,-112.06 -91.79,-221.05 -148.03,-326.53 -20.13,-0.29 -39.7,-0.35 -59.18,-0.21 68.1,124.47 126.55,254.23 174.8,388.27 98,272.07 176.72,588.68 151.09,879.81 -12.28,141.46 -61.1,293.7 -192.34,368.13 -137.25,78.01 -304.69,41.33 -443.23,-13.49 -134.04,-53.09 -263.78,-124.18 -388.27,-204.77 -7.28,14.06 -15.19,27.19 -24.34,39.7z"/>
  <path class="fil7" d="M18736.93 17455.41c-480.48,500.75 -733.84,1217.25 -1379.7,1549.36 -285.14,146.67 -625.86,206.11 -938.84,122.82 -140.25,-37.33 -279.93,-106.7 -378.13,-215.97 -98.63,-109.9 -130.11,-250 -121.98,-394.62 23.07,-411.95 166.59,-836.55 332.75,-1210.47 20.05,-45.04 92.28,-18.35 72.09,27.13 -140.98,317.03 -245.03,649.63 -302.77,991.99 -25.77,153.18 -54.52,324.25 26.83,466.28 78.86,137.39 236.89,219.19 384.48,259.73 310.98,85.58 650.85,17.42 929.5,-136.12 278.43,-153.51 493.39,-395.89 677.82,-650.26 212.61,-293.42 396.54,-606.18 648.7,-869.03 34.25,-35.68 83.21,23.76 49.25,59.16z"/>
  <path class="fil4" d="M14350.3 19478.24c140.24,79.23 298.27,131.27 457.94,153.68 485.31,68.51 959.52,-90.51 1423.65,-208.85 246.61,-62.8 515.04,-128.47 766.19,-51.16 218.18,67.17 389.54,229.52 532.24,401.39 356.35,429.46 640.12,926.91 850.1,1452 10.65,-16.35 21.55,-32.61 32.56,-48.68l0 -0.2c-47.97,-116.69 -99.93,-231.75 -155.24,-345.31 -191.29,-391.83 -422.88,-779.24 -705.6,-1112.41 -127.17,-149.8 -276.2,-289.13 -458.85,-367.06 -207.9,-88.64 -435.52,-74.38 -652.49,-30.76 -494.11,99.28 -971.94,299.84 -1484.75,272.99 -199.64,-10.42 -405.05,-63.73 -580.54,-161.65 -8.72,15.05 -17.22,30.41 -25.21,46.02z"/>
  <path class="fil4" d="M16602.82 21175.13c291.13,595.9 645.71,1159.37 1054.95,1680.11 5.37,-20.84 10.71,-41.54 16.63,-62.18 -87.27,-111.75 -172,-225.52 -254,-341.28 -279.87,-394.92 -528.96,-811.65 -744.28,-1245.09 -77.51,-156.17 -285.49,-511.31 -45.32,-625.24 198.63,-94.2 441.09,134.97 577.83,252.09 329.23,281.78 599.81,616.88 835.85,977.44 8.48,-17.56 17.2,-34.9 26.04,-52.17 -32.76,-49.45 -66.3,-98.55 -100.35,-147.09 -142.73,-203.12 -298.7,-397.18 -471.56,-575.63 -156.08,-161.08 -330.1,-333.23 -526.16,-445.01 -139.82,-79.79 -351.42,-135.81 -458.85,25.63 -113.54,170.8 12.36,400.89 89.22,558.42z"/>
  <path class="fil4" d="M14233.82 20058.22c1,17.28 2.35,34.62 4.15,51.82 204.48,0.42 409.25,25.12 609.01,74.31 329.9,81.35 694.31,223.09 926.06,482.54 114.27,127.76 187.51,291.13 162.3,465.2 -28.26,194.85 -161.51,355.65 -319.03,465.15 -302.83,210.75 -702.3,304.97 -1065.52,330.16l-9.57 0.5c-2.77,17.26 -5.78,34.9 -9.12,52.52 77.99,-4.71 155.58,-12.84 233.03,-24.54 360.14,-54.46 785.73,-176.38 1040.18,-453.65 119.55,-130.25 198.13,-302.68 185.42,-482.12 -11.2,-158.51 -94.64,-300.98 -202.98,-413.61 -258.15,-267.85 -647.35,-412.32 -1003.36,-489.32 -181.22,-39.19 -365.99,-58.67 -550.57,-58.96z"/>
  <path class="fil4" d="M14289.56 22886.57c288.99,-64.59 549.65,-225.76 811.88,-364.85 175.42,-92.92 358.5,-179.21 555.61,-212.92 232.83,-39.73 465.86,7.87 679.2,103.85 432.87,194.79 808.86,547.65 1135.17,885.23 26.2,26.99 52.18,54.18 77.73,81.88 3.36,-21.34 6.92,-42.75 10.62,-64.03 -49.81,-52.89 -100.63,-104.84 -152.36,-155.95 -315.11,-310.96 -668.92,-631.36 -1080.23,-807.58 -198.85,-85.42 -414.68,-128.82 -630.86,-101.71 -189.93,23.92 -369.36,98.07 -538.94,183.87 -276.57,139.88 -547.86,320.47 -849.04,395.12 -6.07,19.06 -12.34,38.04 -18.78,57.09z"/>
  <path class="fil4" d="M13858.33 24008.56c305.05,-81.23 579.19,-248.81 858.26,-395.21 322.11,-169.01 653.9,-284.92 1021.69,-282.27 363.73,2.43 722.86,101.2 1047.33,262.87 257.43,128.39 489.26,295.54 700.24,487.18 0.56,-21.77 1.13,-43.6 1.98,-65.59 -509.23,-448.36 -1154.43,-762.69 -1845.89,-734.43 -355.59,14.65 -673.12,139.48 -983.94,304.71 -251.6,133.81 -500.97,281.9 -774.32,361.84 -8.58,20.41 -17.06,40.62 -25.35,60.9z"/>
  <path class="fil5" d="M17602.1 25460.19c-356.99,-1447.51 -66.59,-2992.37 743.2,-4234.89 182.65,-280.27 395.69,-550.48 634.79,-793.81 31.7,-32.24 81.37,17.42 49.61,49.69 -1260.09,1281.71 -1792.1,3208.26 -1359.87,4960.38 10.79,43.82 -56.87,62.59 -67.73,18.63z"/>
  <path class="fil4" d="M19066.66 18249.08c1.01,10.13 2.37,19.98 4.09,29.98 33.18,207.98 201.62,362.91 401.96,417.94 279.35,76.74 516.87,-26.48 715,-199.4 -6.78,-14.71 -13.98,-29.48 -22.05,-44.19 -169.36,149.68 -370.06,245.17 -609.88,208.41 -221.9,-33.69 -416.1,-194.12 -437.37,-423.24 -0.71,-7.49 -1.41,-15.48 -1.64,-23.13 -6.57,-160.29 56.39,-303.47 142.03,-434.09 -7.71,-3.98 -15.42,-8.19 -22.9,-12.4l-8.22 -4.43 -13.78 -7.71 0 0.2c-95.91,148.12 -164.5,310.28 -147.24,492.06z"/>
  <path class="fil5" d="M15117.05 18371.48c-27.39,188.27 -78.64,369.71 -197.76,521.38 -118.41,150.67 -285.85,242.44 -416.24,379.12 -342.6,359.22 -263.58,979.45 -102.21,1401.91 16.2,42.24 -51.76,60.51 -67.66,18.69 -155.23,-406.53 -219.89,-939.47 13.92,-1330.53 108.12,-180.64 294.55,-280.2 439.94,-426.15 161.51,-162.02 229.95,-360.29 262.36,-583.06 6.49,-44.53 74.09,-25.61 67.65,18.64z"/>
  <path class="fil5" d="M14402.33 20707.57c-81.37,410.46 -234.18,806.29 -373.92,1199.55 -15.05,42.33 -82.86,24.06 -67.65,-18.69 139.74,-393.2 292.49,-789.09 373.84,-1199.55 8.78,-44.27 76.51,-25.55 67.73,18.69z"/>
  <path class="fil0" d="M11603.96 22782.79c32.42,378.14 349.36,663.63 721.93,663.63 20.78,0 41.61,-1.01 62.67,-2.65 666.61,-56.81 1235.38,-105.99 1723.07,-150.44 28.06,-2.57 55.9,-5.14 83.51,-7.42 259.51,-24.14 495.19,-46.62 710.15,-68.59 32.98,-3.3 65.53,-6.8 97.58,-10.08 164.01,-17.05 315.39,-33.74 455.13,-50.31 24.5,-2.77 48.39,-5.65 72.02,-8.64 130.33,-15.7 250.37,-31.62 361.3,-47.52 23.4,-3.3 46.53,-6.78 69.09,-10.08 323.09,-48.23 565.04,-98.49 757.1,-157.02 26.4,-8.13 51.96,-16.34 76.44,-24.82l0.3 0c132.46,-45.06 239.58,-95.43 334.65,-153.17 227.83,-138.75 452.01,-305.84 669.2,-490.7 24.06,-20.33 48.09,-41.17 71.94,-62.23 123.62,-107.92 244.81,-221.4 362.71,-338.29 29.68,-29.34 58.82,-58.82 88.01,-88.52l0.2 -0.28c342.16,-348.31 656.84,-722.93 928.49,-1074.58 13.35,-17.34 26.48,-34.47 39.53,-51.33 563.43,-736.06 932.42,-1359.21 962.4,-1410.46 25.98,-43.96 46.53,-89.79 62.23,-136.38 8.13,-24.34 15.22,-48.9 20.56,-73.73 66.46,-298.98 -62.66,-619.36 -340.95,-782.67 -345.29,-202.85 -789.65,-87.3 -992.5,257.87 -6.57,10.78 -323.6,545.22 -800.23,1180.91l-12.2 16.15 -0.21 0.28 -11.93 15.84c-490.17,649.78 -1143.03,1397.2 -1800.01,1797.94 -26.9,14.29 -94.5,40.69 -262.07,76.3 -26.71,5.58 -55.68,11.43 -87.79,17.5 -153.68,29.33 -371.57,63.22 -680.18,100.69 -327.11,39.47 -721.3,79.51 -1212.48,124.91l-0.22 0c-59.67,5.42 -121.19,10.98 -183.93,16.85l-0.2 0c-231.19,20.84 -482.77,43.03 -757.41,66.66l-0.22 0c-48.46,4.49 -97.64,8.7 -147.73,12.91 -241.89,21.06 -500.9,43.03 -778.9,66.95 -398.97,34.11 -694.95,385.35 -661.05,784.52z"/>
  <path class="fil4" d="M19228.9 20685.81c5.56,8.41 12.84,13.35 20.55,15.27 26.91,6.56 58.96,-21.12 39.98,-50.6l-0.45 -0.73c-259.93,-401.76 -104.76,-907.85 238.68,-1203.84 225.03,-194.2 499.33,-295.54 785.95,-343 8.13,-24.34 15.22,-48.9 20.56,-73.73 -335.73,51.53 -656.76,172.22 -908.36,414.45 -331.74,319.54 -458.35,839.71 -196.91,1242.18z"/>
  <path class="fil4" d="M18187.44 19721.35c170.29,704.24 184.85,1435.65 45.31,2143.11 29.68,-29.34 58.82,-58.82 88.01,-88.52l0.2 -0.28c120.28,-685.95 98.57,-1392.62 -65.93,-2073.01 -6.8,-27.84 -36.56,-30.69 -54.54,-17.36 -5.63,3.73 -10.06,9.37 -12.2,16.15l-0.21 0.28c-2.14,5.85 -2.36,12.42 -0.64,19.63z"/>
  <path class="fil4" d="M16717.51 22933.67c26.4,-8.13 51.96,-16.34 76.44,-24.82l0.3 0c51.02,-350.23 117.97,-697.69 218.54,-1037.47 46.11,-155.38 93.57,-316.26 163.8,-462.78 83.57,-173.87 301.12,-328.83 437.73,-105.29 165.51,270.22 197.76,653.56 183.78,961.67 24.06,-20.33 48.09,-41.17 71.94,-62.23 3.79,-181.07 -13.27,-361.28 -54.46,-538.14 -33.91,-145.81 -75.79,-325.04 -173.14,-444.65 -75.87,-92.64 -187.22,-123.7 -299.69,-81.88 -136.91,51.33 -207.78,183.93 -259.73,311.91 -192.35,472.91 -294.92,976.24 -365.51,1483.68z"/>
  <path class="fil4" d="M15891.32 23100.77c23.4,-3.3 46.53,-6.78 69.09,-10.08 -135.84,-495.11 -84.79,-1031.61 153.66,-1498.89 -26.71,5.58 -55.68,11.43 -87.79,17.5 -224.61,468.48 -268.09,999.35 -134.96,1491.47z"/>
  <path class="fil4" d="M14069.1 21886.14c613.44,194.49 1132.68,650.29 1388.9,1270.79 3.01,7.06 6,14 8.86,21.26 16.63,41.48 84.71,23.21 67.87,-18.69l-4.71 -11.21c-247.51,-608.16 -733.07,-1062.8 -1316.1,-1284.34 -48.48,7.2 -96.71,14.71 -144.82,22.19z"/>
  <path class="fil4" d="M12184.73 22337.94c268.92,131.74 538.42,262.78 813.15,381.91 84.2,36.53 168.93,72.08 254.29,105.99 191.92,76.5 713,348.14 827.35,18.69 45.96,-132.17 -44.67,-266.22 -126.75,-361.72 -107.86,-125.39 -235.4,-236.1 -368.78,-333.66 -71.38,-51.95 -145.25,-99.7 -221.62,-142.75 -36.68,6.86 -72.73,13.78 -108.48,20.84 57.94,29.98 114.83,62.74 170,97.78 124.83,79.31 241.53,170.37 348.43,272.15 102.01,96.85 280.07,251.3 239.89,407.61 -57.1,221.33 -351.93,97.35 -492.82,47.24 -157.24,-55.94 -312.11,-117.69 -465.35,-183.7 -18.77,-8.14 -37.69,-16.35 -56.38,-24.71 -244.52,-106.76 -485.12,-223.03 -724.86,-340.51 -28.83,11.2 -58.11,22.7 -88.07,34.84z"/>
  <path class="fil4" d="M14111.63 23293.33c28.06,-2.57 55.9,-5.14 83.51,-7.42 67.37,-119.84 173.14,-205.27 343.94,-204.57 138.83,0.71 259.02,56.61 366.21,135.98 32.98,-3.3 65.53,-6.8 97.58,-10.08 -154.25,-128.04 -332.31,-220.68 -542.37,-190.48 -177.78,25.7 -283.63,136.18 -348.87,276.57z"/>
  <path class="fil9" d="M10542.88 23497.3l1669.04 0c0,0 325.45,-74.37 641.28,-390.18 102.05,-102.07 139.96,-243.16 144.68,-387.27 1.13,-25.33 0.85,-51.03 -0.22,-76.24 -11.5,-277.07 -125.9,-542.42 -125.9,-542.42 0,0 -253.87,68.58 -598.96,201.91 -28.83,11.2 -58.11,22.7 -88.07,34.84 -568.99,228.59 -1332.31,619.87 -1641.85,1159.36z"/>
  <path class="fil5" d="M18701.8 19246.29c-713.22,768.11 -1426.44,1536.14 -2139.67,2304.25 -30.75,33.2 -80.36,-16.49 -49.6,-49.58 713.16,-768.12 1426.38,-1536.23 2139.6,-2304.28 30.84,-33.18 80.36,16.57 49.67,49.61z"/>
  <path class="fil5" d="M16536.38 21551.27c-1199.15,244.01 -2427.95,312.11 -3623.01,583.82 -43.96,9.92 -62.82,-57.74 -18.71,-67.81 1195.22,-271.57 2423.96,-339.65 3623,-583.68 44.13,-8.99 63.03,58.61 18.72,67.67z"/>
  <path class="fil5" d="M18888.66 21254.35c-498.04,529.02 -1037.03,1048.89 -1630.7,1470.49 -290.2,206.12 -602.9,327.25 -954.55,380.05 -333.88,50.18 -672.76,70.73 -1008.2,108.93 -370.58,42.18 -741.14,80 -1113.7,100.63 -45.1,2.49 -44.96,-67.65 0,-70.16 401.98,-22.34 801.23,-65.51 1201.12,-110.63 434.94,-49.1 893.02,-51.47 1311.41,-189.99 439.21,-145.47 801.07,-479.55 1144.52,-777.24 349.73,-303.19 683.18,-624.73 1000.49,-961.75 30.98,-32.91 80.53,16.78 49.61,49.67z"/>
  <path class="fil5" d="M16561.85 21504.74c104.27,84.06 175.08,198.69 204.76,329.23 10.08,43.96 -57.6,62.82 -67.65,18.69 -27.27,-119.97 -91.06,-221.17 -186.72,-298.33 -35.1,-28.41 14.79,-77.79 49.61,-49.59z"/>
  <path class="fil5" d="M17891.81 24115.88c0,0 670.11,1304.78 318.18,2335.88 -351.94,1031.12 -2979.46,1667.34 -4438.44,1070.53 -1459.08,-596.83 165.52,-3701.3 165.52,-3701.3 0,0 1066.87,924.99 3954.74,294.89z"/>
  <path class="fil0" d="M12857.41 35413.51c196.83,-284.43 1907.49,-1767.61 1907.49,-1767.61 0,0 320.47,278.21 289.78,565.41 -29.19,273.41 -90.29,1717.14 -101.93,1869.03l-197.98 -9.93 -78.5 -664.12c0,0 -487.48,699.18 -838.64,929.21 -351.14,230.18 -1493.39,128.19 -1766.26,77.73 -272.78,-50.45 589.19,-715.22 786.04,-999.72z"/>
  <path class="fil9" d="M14286.79 32905.69l460.41 668.69c0,0 80.95,215.19 -26.32,521.73 -107.21,306.71 -478.56,783.17 -827.86,1133.11 -301.26,301.84 -928.91,586.46 -1107.84,494.91 -178.92,-91.59 383.78,-696.53 555.99,-1018.28 172.15,-321.7 213.97,-591.77 301.77,-860.97 101.2,-310.11 -336.45,-870.97 -336.45,-870.97l980.3 -68.22z"/>
  <path class="fil5" d="M12997.72 24662.97c0,0 -3406.11,1170.57 -3217.75,2691.95 188.27,1521.51 3501.17,6044.16 3501.17,6044.16l1334.74 -236.94 -658.76 -2476.48c-384.14,-1378.56 -547.43,-2147.97 -1056.45,-2755.05l2798.71 -428.87c0,0 -645.27,-2801.67 -2701.66,-2838.77z"/>
  <path class="fil11" d="M14214.2 32827.31l13.92 -2.97c26.77,-9.65 40.6,-39.21 31.03,-65.96 -6.49,-17.9 -650.06,-1805.22 -971.09,-3098.06 -263.92,-1063.39 -932.98,-1766.98 -1182.27,-1999.64 315.1,-29.42 835.06,-139.03 860.24,-144.4 27.9,-5.92 45.69,-33.26 39.76,-61.1 -5.85,-27.81 -33.18,-45.74 -61.1,-39.75 -6.98,1.44 -704.87,148.6 -966.72,149.53 -21.63,-0.14 -41.34,13.86 -48.54,34.48 -7.22,20.63 -0.59,43.62 16.49,57.31 9.2,7.29 925.05,751.12 1242.16,2028.4 322.24,1298.05 967.59,3090.29 974.08,3108.27 8,22.14 29.62,35.47 52.04,33.89z"/>
  <path class="fil11" d="M13062.46 33105.62l7.06 -0.99 1420.6 -296.98c27.84,-5.81 45.76,-33.12 39.89,-61.04 -5.76,-27.76 -33.17,-45.75 -60.93,-39.84l-1420.68 296.98c-27.84,5.85 -45.75,33.12 -39.9,60.96 5.28,25.55 28.69,42.69 53.96,40.91z"/>
  <path class="fil0" d="M4021.42 31995.98c343.73,-39.19 2586.4,271.71 2586.4,271.71 0,0 1.5,424.43 -234.81,590.47 -224.97,158.07 -1351.79,1062.67 -1473.76,1153.95l-122.91 -155.66 448.21 -496.26c0,0 -847.2,93.43 -1251.59,-19.34 -404.38,-112.75 -1079.8,-1039.68 -1221.46,-1278.21 -141.68,-238.53 926.27,-27.47 1269.92,-66.66z"/>
  <path class="fil9" d="M7076.75 31645.83l-426.83 561.47c0,0 -108.62,202.63 -410.03,323.82 -301.25,121.21 -904.57,155.38 -1397.9,122.91 -425.51,-27.98 -1053.03,-312.9 -1101.85,-507.89 -48.96,-194.98 776.89,-169.79 1132.4,-252.01 355.51,-82.22 586.33,-228.6 846.69,-339.81 300.06,-128.04 672.4,-589.67 672.4,-589.67l685.12 681.18z"/>
  <path class="fil5" d="M6013.22 31220.38l1168.79 747.13c0,0 917.79,-850.05 2051.1,-1854.12 1133.33,-1004.21 2189.78,-2188 2632.08,-3083.72 0,0 3343.23,1443.08 5155.88,1082.8 754.39,-149.82 1094.34,-666.83 1234.16,-1219.12 20.78,-82.16 37.27,-165.51 49.53,-248.44 106.21,-695.6 -51.53,-1368.93 -51.53,-1368.93 0,0 -4250.65,-782.25 -6446.79,-706.38 -153.23,5.28 -296.33,14.71 -427.37,28.91 -207.27,22.48 -384.42,56.89 -522.52,104.98 -279.22,98 -626.29,391.93 -1005.14,804.16 -13.7,14.77 -27.11,29.62 -40.75,44.61 -1620.65,1788.37 -3797.44,5668.12 -3797.44,5668.12z"/>
  <path class="fil12" d="M9851.41 25507.65c1196.71,211.55 1740.64,-505.38 1955.03,-938.05 -153.23,5.28 -296.33,14.71 -427.37,28.91 -207.27,22.48 -384.42,56.89 -522.52,104.98 -279.22,98 -626.29,391.93 -1005.14,804.16z"/>
  <path class="fil11" d="M10508.04 28922.4c9.85,-0.71 19.57,-4.15 27.98,-10.64 823.93,-638.49 1267.14,-1569.49 1371.13,-1807.57 431.3,249.94 1751.98,638.71 1810.51,655.9 27.33,7.94 55.96,-7.62 63.95,-34.98 8.07,-27.33 -7.57,-55.88 -34.9,-63.93 -14.85,-4.37 -1485.97,-437.38 -1834.56,-675.27 -12.93,-8.84 -29.19,-11.35 -44.24,-6.55 -15,4.57 -27.05,15.76 -32.78,30.41 -4.35,10.98 -438.72,1104.84 -1362.27,1820.49 -22.48,17.4 -26.57,49.81 -9.15,72.29 10.93,14.14 27.78,21.06 44.33,19.85z"/>
  <path class="fil11" d="M7434.66 31713.48c15.5,-1.07 30.35,-9.12 39.56,-23.12 15.62,-23.83 8.98,-55.74 -14.79,-71.38l-1189.42 -782.01c-23.77,-15.56 -55.67,-9.06 -71.37,14.69 -15.62,23.77 -8.99,55.82 14.79,71.38l1189.41 782.11c9.77,6.41 20.98,9.06 31.82,8.33z"/>
  <path class="fil11" d="M7147.68 31517.5c11.07,11.07 25.98,16.06 40.18,14.85 12.06,-0.65 23.55,-5.71 32.61,-14.57 19.71,-19.7 1965.12,-1946.31 2903.52,-2776.54 847.25,-749.68 1359.78,-1913.27 1463.34,-2163.86 347.72,137.19 2515.46,961.89 4530.52,1072.45 911.86,50.38 1484.47,-215.97 1804.07,-448.15 148.25,-107.35 256.59,-216.98 333.25,-308.26 20.84,-82.29 37.33,-165.58 49.67,-248.59 -14.2,25.41 -45.32,76.09 -96,141.6 -73.16,93.43 -187.42,216.34 -352.8,335.8 -305.61,220.35 -854.54,473.14 -1732.85,425.03 -2169.29,-119.41 -4521.29,-1074.72 -4544.78,-1084.21 -12.99,-5.36 -27.27,-5.36 -39.89,0.28 -12.99,5.42 -22.76,15.92 -27.84,28.83 -5.06,13.36 -525.15,1349.31 -1455.08,2171.86 -940.4,832 -2888.01,2760.98 -2907.56,2780.24 -20.27,20.27 -20.27,52.91 -0.36,73.24z"/>
  <path class="fil11" d="M5280.73 23985.35l8468.83 0c18.92,0 34.19,-15.27 34.19,-34.11 0,-262.95 -213.12,-476.07 -475.98,-476.07l-8027.04 0c-18.85,0 -34.19,15.36 -34.19,34.19l0 441.8c0,18.92 15.34,34.19 34.19,34.19z"/>
  <path class="fil5" d="M2453.23 19305.95l1056.96 4470.71c28.26,119.13 134.54,203.19 257,203.19l6511.61 0c170.37,0 296.19,-158.94 257,-324.74l-1057.02 -4470.63c-28.2,-119.12 -134.54,-203.26 -256.94,-203.26l-6511.67 0c-170.37,0 -296.19,159.08 -256.94,324.73z"/>
  <path class="fil11" d="M3783.11 23534.57l5826.14 0c20.56,0 37.33,-16.71 37.33,-37.27 0,-20.61 -16.77,-37.32 -37.33,-37.32l-5826.14 0c-20.55,0 -37.18,16.71 -37.18,37.32 0,20.56 16.63,37.27 37.18,37.27z"/>
  <path class="fil2" d="M7736.07 21322.65c62.6,324.82 682.76,731.58 682.76,731.58 0,0 569.4,-406.76 591.33,-731.58 23.83,-352.15 -396.91,-460.2 -649.21,-194.7 -285.43,-265.5 -692.75,-157.45 -624.88,194.7z"/>
  <path class="fil0" d="M8080.8 20032.25l166.3 -0.09 -44.24 -214.31 -166.31 0.06 44.25 214.34zm-548.13 -214.12l-22.76 -255.24 203.26 -0.06 -49.32 -233.11 268.79 -0.14 49.25 233.11 166.36 -0.08 -49.32 -233.11 268.79 -0.14 49.25 233.11 235.17 -0.06 22.7 255.14 -203.21 0.14 44.27 214.33 235.23 -0.06 22.64 255.16 -203.2 0.14 49.24 233.09 -268.8 0.14 -49.24 -233.08 -166.28 0.06 49.24 233.02 -268.72 0.17 -49.32 -233.11 -235.17 0.14 -22.7 -255.22 203.26 -0.08 -44.32 -214.4 -235.09 0.14z"/>
  <path class="fil11" d="M8963.75 18981.22l1125.48 4998.63 189.57 0c170.37,0 296.19,-158.94 257,-324.74l-1057.02 -4470.63c-28.2,-119.12 -134.54,-203.26 -256.94,-203.26l-258.09 0z"/>
  <path class="fil11" d="M5670.63 21655.46c32.76,273.37 280.92,494.91 554.29,494.91 273.35,0 468.4,-221.54 435.58,-494.91 -32.83,-273.34 -280.99,-494.96 -554.36,-494.96 -273.35,0 -468.34,221.62 -435.51,494.96z"/>
  <polygon class="fil2" points="6606.89,35479.87 7246.23,35479.87 7246.23,24790.85 6606.89,24790.85 "/>
  <polygon class="fil2" points="2384.93,35616.78 2384.93,36355.7 11516.04,36355.7 11516.04,35616.78 7246.33,35137.23 6950.4,35166 6654.64,35137.23 "/>
  <polygon class="fil3" points="2384.93,36355.7 11516.04,36355.7 11516.04,35908.56 2384.93,35908.56 "/>
  <polygon class="fil3" points="6606.89,25902.35 6606.89,26420.93 7246.25,26620.71 7246.25,25902.35 "/>
  <path class="fil3" d="M-989.49 25902.35l15752.9 0c103.99,0 188.27,-84.3 188.27,-188.29l0 -690.59 -16129.39 0 0 690.59c0,103.99 84.23,188.29 188.22,188.29z"/>
  <path class="fil2" d="M-1568.4 24332.73l0 340.29c0,195.84 105.57,354.52 236.04,354.52l16419.88 0c130.33,0 235.96,-158.68 235.96,-354.52l0 -340.29c0,-195.78 -105.63,-354.38 -235.96,-354.38l-16419.88 0c-130.47,0 -236.04,158.6 -236.04,354.38z"/>
  <path class="fil0" d="M792.97 23984.64l568.83 0c61.52,0 111.41,-49.97 111.41,-111.49l0 -3153.8c0,-61.61 -49.89,-111.5 -111.41,-111.5l-568.83 0c-61.53,0 -111.48,49.89 -111.48,111.5l0 3153.8c0,61.52 49.95,111.49 111.48,111.49z"/>
  <path class="fil13" d="M903.45 22411.88l347.86 0c56.19,0 101.71,-45.54 101.71,-101.7l0 -27.84c0,-56.18 -45.52,-101.71 -101.71,-101.71l-347.86 0c-56.16,0 -101.7,45.53 -101.7,101.71l0 27.84c0,56.16 45.54,101.7 101.7,101.7z"/>
  <polygon class="fil13" points="681.49,21010.97 1473.21,21010.97 1473.21,20880.49 681.49,20880.49 "/>
  <polygon class="fil13" points="681.49,21283.61 1473.21,21283.61 1473.21,21153.22 681.49,21153.22 "/>
  <polygon class="fil13" points="681.49,23296.04 1473.21,23296.04 1473.21,23165.65 681.49,23165.65 "/>
  <polygon class="fil13" points="681.49,23568.68 1473.21,23568.68 1473.21,23438.29 681.49,23438.29 "/>
  <path class="fil0" d="M1584.71 23984.64l568.83 0c61.58,0 111.48,-49.97 111.48,-111.49l0 -3153.8c0,-61.61 -49.9,-111.5 -111.48,-111.5l-568.77 0c-61.67,0 -111.56,49.89 -111.56,111.5l0 3153.8c0,61.52 49.89,111.49 111.5,111.49z"/>
  <path class="fil13" d="M1695.11 22411.88l347.94 0c56.17,0 101.65,-45.54 101.65,-101.7l0 -27.84c0,-56.18 -45.48,-101.71 -101.65,-101.71l-347.94 0c-56.16,0 -101.64,45.53 -101.64,101.71l0 27.84c0,56.16 45.48,101.7 101.64,101.7z"/>
  <polygon class="fil13" points="1473.21,21010.97 2265.04,21010.97 2265.04,20880.49 1473.21,20880.49 "/>
  <polygon class="fil13" points="1473.21,21283.61 2265.04,21283.61 2265.04,21153.22 1473.21,21153.22 "/>
  <polygon class="fil13" points="1473.21,23296.04 2265.04,23296.04 2265.04,23165.65 1473.21,23165.65 "/>
  <polygon class="fil13" points="1473.21,23568.68 2265.04,23568.68 2265.04,23438.29 1473.21,23438.29 "/>
  <path class="fil14" d="M-518.36 23879.22l561.63 90.57c60.73,9.77 117.91,-31.54 127.76,-92.27l501.96 -3113.64c9.78,-60.8 -31.56,-118.05 -92.35,-127.82l-561.57 -90.58c-60.74,-9.77 -117.91,31.48 -127.74,92.3l-501.97 3113.67c-9.79,60.82 31.54,117.99 92.28,127.77z"/>
  <path class="fil13" d="M-238.36 22331.3l502.31 80.93c11.57,1.92 22.42,-5.99 24.34,-17.57l29.98 -186.27c1.93,-11.63 -6,-22.56 -17.56,-24.42l-502.33 -81c-11.55,-1.78 -22.39,6.07 -24.34,17.64l-29.96 186.35c-1.94,11.55 5.99,22.4 17.56,24.34z"/>
  <polygon class="fil13" points="-155.08,20925.69 626.6,21051.73 647.36,20922.98 -134.31,20797 "/>
  <polygon class="fil13" points="-198.54,21194.89 583.13,21320.87 603.9,21192.18 -177.76,21066.14 "/>
  <polygon class="fil13" points="-518.79,23181.69 262.88,23307.67 283.66,23178.98 -498.03,23052.94 "/>
  <polygon class="fil13" points="-562.18,23450.83 219.48,23576.9 240.26,23448.12 -541.41,23322.08 "/>
  <polygon class="fil3" points="-1568.4,24658.62 15323.48,24658.62 15323.48,24502.87 -1568.4,24502.87 "/>
 </g>
</svg>
